<?xml version="1.0" encoding="utf-8"?>
<!-- Generator: Adobe Illustrator 16.0.0, SVG Export Plug-In . SVG Version: 6.00 Build 0)  -->
<!DOCTYPE svg PUBLIC "-//W3C//DTD SVG 1.1//EN" "http://www.w3.org/Graphics/SVG/1.1/DTD/svg11.dtd">
<svg version="1.1" id="Capa_1" xmlns="http://www.w3.org/2000/svg" xmlns:xlink="http://www.w3.org/1999/xlink" x="0px" y="0px"
	 width="120px" height="50px" viewBox="0 0 120 50" enable-background="new 0 0 120 50" xml:space="preserve">
<g>
	<g>
		<path fill="#00967B" d="M66.291,25c0-3.473-2.828-6.291-6.291-6.291S53.709,21.527,53.709,25c0,3.473,2.828,6.291,6.291,6.291
			S66.291,28.473,66.291,25z M60,28.832c-2.111,0-3.832-1.721-3.832-3.832c0-2.111,1.721-3.832,3.832-3.832
			c2.111,0,3.832,1.721,3.832,3.832C63.832,27.111,62.111,28.832,60,28.832z"/>
		<path fill="#00967B" d="M50.892,23.771c-0.676,0-1.229,0.553-1.229,1.229c0,0.676,0.553,1.229,1.229,1.229
			c0.676,0,1.229-0.554,1.229-1.229C52.121,24.324,51.567,23.771,50.892,23.771z"/>
		<path fill="#00967B" d="M45.635,25c0,0.676,0.553,1.229,1.229,1.229s1.229-0.554,1.229-1.229c0-0.676-0.553-1.229-1.229-1.229
			S45.635,24.324,45.635,25z"/>
		<path fill="#00967B" d="M44.067,25c0-2.5-2.039-4.539-4.539-4.539S35,22.5,35,25s2.039,4.539,4.539,4.539S44.067,27.5,44.067,25z
			 M39.539,27.08c-1.147,0-2.08-0.933-2.08-2.08s0.933-2.08,2.08-2.08s2.08,0.933,2.08,2.08S40.676,27.08,39.539,27.08z"/>
		<circle fill="#00967B" cx="73.135" cy="25" r="1.229"/>
		<path fill="#00967B" d="M69.108,26.229c0.677,0,1.229-0.554,1.229-1.229c0-0.676-0.553-1.229-1.229-1.229
			c-0.676,0-1.229,0.553-1.229,1.229C67.879,25.676,68.433,26.229,69.108,26.229z"/>
		<path fill="#00967B" d="M80.461,20.461c-2.5,0-4.539,2.039-4.539,4.539s2.039,4.539,4.539,4.539S85,27.5,85,25
			S82.961,20.461,80.461,20.461z M80.461,27.08c-1.147,0-2.08-0.933-2.08-2.08s0.933-2.08,2.08-2.08s2.08,0.933,2.08,2.08
			S81.608,27.08,80.461,27.08z"/>
		<path fill="#00967B" d="M60,32.879c-0.676,0-1.229,0.554-1.229,1.229c0,0.677,0.553,1.229,1.229,1.229
			c0.676,0,1.229-0.553,1.229-1.229C61.229,33.433,60.676,32.879,60,32.879z"/>
		<path fill="#00967B" d="M60,36.906c-0.676,0-1.229,0.553-1.229,1.229c0,0.677,0.553,1.23,1.229,1.23
			c0.676,0,1.229-0.554,1.229-1.23C61.229,37.459,60.676,36.906,60,36.906z"/>
		<path fill="#00967B" d="M60,40.933c-2.5,0-4.539,2.038-4.539,4.538S57.5,50,60,50s4.539-2.039,4.539-4.539S62.5,40.933,60,40.933z
			 M60,47.541c-1.147,0-2.08-0.933-2.08-2.08s0.933-2.08,2.08-2.08s2.08,0.933,2.08,2.08S61.147,47.541,60,47.541z"/>
		<path fill="#00967B" d="M60,17.121c0.676,0,1.229-0.554,1.229-1.229c0-0.676-0.554-1.229-1.229-1.229
			c-0.676,0-1.229,0.553-1.229,1.229C58.771,16.567,59.324,17.121,60,17.121z"/>
		<circle fill="#00967B" cx="60" cy="11.865" r="1.229"/>
		<path fill="#00967B" d="M60,9.067c2.5,0,4.539-2.039,4.539-4.539S62.5,0,60,0s-4.539,2.039-4.539,4.539S57.5,9.067,60,9.067z
			 M60,2.459c1.147,0,2.08,0.933,2.08,2.08s-0.933,2.08-2.08,2.08s-2.08-0.932-2.08-2.08S58.853,2.459,60,2.459z"/>
		<path fill="#00967B" d="M52.695,30.574c-0.482,0.48-0.482,1.26,0,1.741c0.481,0.481,1.26,0.481,1.742,0s0.481-1.261,0-1.741
			C53.945,30.092,53.166,30.092,52.695,30.574z"/>
		<circle fill="#00967B" cx="50.717" cy="34.282" r="1.229"/>
		<path fill="#00967B" d="M42.326,36.26c-1.772,1.773-1.772,4.643,0,6.414c1.772,1.773,4.642,1.773,6.414,0
			c1.772-1.771,1.772-4.641,0-6.414C46.967,34.498,44.088,34.498,42.326,36.26z M46.998,40.942c-0.81,0.81-2.121,0.81-2.931,0
			c-0.809-0.81-0.809-2.12,0-2.931c0.81-0.809,2.121-0.809,2.931,0C47.808,38.812,47.808,40.133,46.998,40.942z"/>
		<circle fill="#00967B" cx="69.283" cy="15.717" r="1.229"/>
		<circle fill="#00967B" cx="66.445" cy="18.555" r="1.229"/>
		<path fill="#00967B" d="M77.674,13.74c1.773-1.772,1.773-4.642,0-6.414c-1.771-1.772-4.641-1.772-6.414,0
			c-1.771,1.772-1.771,4.642,0,6.414C73.033,15.512,75.912,15.502,77.674,13.74z M73.002,9.058c0.81-0.81,2.121-0.81,2.931,0
			c0.81,0.809,0.81,2.121,0,2.93c-0.81,0.809-2.121,0.809-2.931,0C72.192,11.188,72.192,9.867,73.002,9.058z"/>
		<circle fill="#00967B" cx="69.283" cy="34.282" r="1.229"/>
		<path fill="#00967B" d="M65.574,30.574c-0.482,0.48-0.482,1.26,0,1.741c0.48,0.481,1.26,0.481,1.741,0s0.481-1.261,0-1.741
			C66.834,30.092,66.055,30.092,65.574,30.574z"/>
		<path fill="#00967B" d="M71.26,36.26c-1.771,1.773-1.771,4.643,0,6.414c1.773,1.773,4.643,1.773,6.414,0
			c1.773-1.771,1.773-4.641,0-6.414C75.912,34.498,73.033,34.498,71.26,36.26z M75.942,40.942c-0.81,0.81-2.12,0.81-2.931,0
			c-0.809-0.81-0.809-2.12,0-2.931c0.811-0.809,2.121-0.809,2.931,0C76.752,38.812,76.752,40.133,75.942,40.942z"/>
		<circle fill="#00967B" cx="53.555" cy="18.555" r="1.229"/>
		<circle fill="#00967B" cx="50.717" cy="15.717" r="1.229"/>
		<path fill="#00967B" d="M48.74,13.74c1.772-1.772,1.772-4.642,0-6.414s-4.642-1.772-6.414,0s-1.772,4.642,0,6.414
			C44.088,15.502,46.967,15.502,48.74,13.74z M44.058,9.058c0.809-0.81,2.121-0.81,2.93,0c0.809,0.809,0.809,2.121,0,2.93
			c-0.81,0.809-2.121,0.809-2.93,0C43.248,11.188,43.248,9.867,44.058,9.058z"/>
	</g>
</g>
</svg>
